# This file uses inches as units for non-parametric coordinates.

mtllib skirting.mtl
v -1.687524 -7.620000 50.000000
v 1.687524 -7.620000 50.000000
v -1.687524 7.620000 50.000000
v 0.563293 5.385909 50.000000
v -1.687524 7.620000 -50.000000
v 0.563293 5.385909 -50.000000
v -1.687524 -7.620000 -50.000000
v 1.687524 -7.620000 -50.000000
v 1.687524 4.589090 -50.000000
v -1.687524 4.589090 -50.000000
v -1.687524 4.589090 50.000000
v 1.687524 4.589090 50.000000
v 0.200541 7.620000 -50.000000
v 0.200541 4.589090 -50.000000
v 0.200541 -7.620000 -50.000000
v 0.200541 -7.620000 50.000000
v 0.200541 4.589090 50.000000
v 0.200541 7.620000 50.000000
vt 0.375000 0.000000
vt 0.625000 0.000000
vt 0.375000 0.250000
vt 0.625000 0.250000
vt 0.375000 0.500000
vt 0.625000 0.500000
vt 0.375000 0.750000
vt 0.625000 0.750000
vt 0.375000 1.000000
vt 0.625000 1.000000
vt 0.875000 0.000000
vt 0.875000 0.250000
vt 0.125000 0.000000
vt 0.125000 0.250000
vt 0.625000 0.549720
vt 0.875000 0.200280
vt 0.125000 0.200280
vt 0.375000 0.549720
vt 0.375000 0.200280
vt 0.625000 0.200280
vt 0.514855 0.500000
vt 0.514855 0.549720
vt 0.514855 0.750000
vt 0.514855 0.000000
vt 0.514855 1.000000
vt 0.514855 0.200280
vt 0.514855 0.250000
vn 0.000000 0.000000 1.000000
vn -0.000000 0.000000 1.000000
vn -0.000000 0.000000 1.000000
vn 0.000000 0.000000 1.000000
vn 0.000000 1.000000 0.000000
vn 0.704465 0.709739 0.000000
vn 0.704465 0.709739 0.000000
vn 0.000000 1.000000 0.000000
vn 0.000000 0.000000 -1.000000
vn 0.000000 0.000000 -1.000000
vn 0.000000 0.000000 -1.000000
vn 0.000000 0.000000 -1.000000
vn 0.000000 -1.000000 0.000000
vn 0.000000 -1.000000 0.000000
vn 0.000000 -1.000000 0.000000
vn 0.000000 -1.000000 0.000000
vn 0.996285 0.086119 0.000000
vn 0.996285 0.086119 0.000000
vn 0.578253 0.815858 0.000000
vn 0.578253 0.815858 0.000000
vn -1.000000 0.000000 0.000000
vn -1.000000 0.000000 0.000000
vn -1.000000 0.000000 0.000000
vn -1.000000 0.000000 0.000000
vn 0.000000 0.000000 -1.000000
vn 0.000000 0.000000 -1.000000
vn -1.000000 0.000000 0.000000
vn -1.000000 0.000000 0.000000
vn 0.000000 0.000000 1.000000
vn 0.000000 0.000000 1.000000
vn 1.000000 0.000000 0.000000
vn 1.000000 0.000000 0.000000
vn 0.000000 0.000000 -1.000000
vn 0.000000 0.000000 -1.000000
vn 0.000000 0.000000 -1.000000
vn 0.000000 -1.000000 0.000000
vn 0.000000 -1.000000 0.000000
vn 0.000000 0.000000 1.000000
vn -0.000000 0.000000 1.000000
vn -0.000007 0.000000 1.000000
vn 0.987073 0.160272 0.000000
vn 0.987073 0.160272 0.000000
s 1
usemtl initialShadingGroup
f 11/19/1 17/26/2 18/27/3 3/3/4
s 2
f 3/3/5 18/27/6 13/21/7 5/5/8
s 3
f 5/5/9 13/21/10 14/22/11 10/18/12
s 4
f 7/7/13 15/23/14 16/25/15 1/9/16
s 5
f 12/20/17 9/16/18 6/12/19 4/4/20
s 6
f 10/17/21 11/19/22 3/3/23 5/14/24
s 3
f 10/18/12 14/22/11 15/23/25 7/7/26
s 6
f 7/13/27 1/1/28 11/19/22 10/17/21
s 1
f 1/1/29 16/24/30 17/26/2 11/19/1
s 5
f 2/2/31 8/11/32 9/16/18 12/20/17
s 3
f 13/21/10 6/6/33 9/15/34 14/22/11
f 15/23/25 14/22/11 9/15/34 8/8/35
s 4
f 16/25/15 15/23/14 8/8/36 2/10/37
s 1
f 17/26/2 16/24/30 2/2/38 12/20/39
f 18/27/3 17/26/2 12/20/39 4/4/40
s 2
f 13/21/7 18/27/6 4/4/41 6/6/42
